{
    "asset" : {
        "generator" : "Khronos glTF Blender I/O v1.3.48",
        "version" : "2.0"
    },
    "scene" : 0,
    "scenes" : [
        {
            "name" : "Scene",
            "nodes" : [
                1,
                2
            ]
        }
    ],
    "nodes" : [
        {
            "mesh" : 0,
            "name" : "polySurface1"
        },
        {
            "children" : [
                0
            ],
            "name" : "Whale-v2.glb",
            "scale" : [
                4.479999542236328,
                4.479999542236328,
                4.479999542236328
            ]
        },
        {
            "mesh" : 1,
            "name" : "Whale",
            "translation" : [
                -0.4141336977481842,
                -0.020882606506347656,
                0
            ]
        }
    ],
    "materials" : [
        {
            "doubleSided" : true,
            "emissiveFactor" : [
                0,
                0,
                0
            ],
            "name" : "lambert1_1",
            "pbrMetallicRoughness" : {
                "baseColorFactor" : [
                    1,
                    1,
                    1,
                    1
                ],
                "metallicFactor" : 0,
                "roughnessFactor" : 0.5
            }
        }
    ],
    "meshes" : [
        {
            "name" : "Mesh_0",
            "primitives" : [
                {
                    "attributes" : {
                        "POSITION" : 0,
                        "NORMAL" : 1,
                        "TEXCOORD_0" : 2
                    },
                    "indices" : 3,
                    "material" : 0
                }
            ]
        },
        {
            "name" : "Whale",
            "primitives" : [
                {
                    "attributes" : {
                        "POSITION" : 4,
                        "NORMAL" : 5,
                        "TEXCOORD_0" : 6,
                        "COLOR_0" : 7
                    },
                    "indices" : 8
                }
            ]
        }
    ],
    "accessors" : [
        {
            "bufferView" : 0,
            "componentType" : 5126,
            "count" : 21186,
            "max" : [
                0.11969055235385895,
                0.062272265553474426,
                0.1639316976070404
            ],
            "min" : [
                -0.11968070268630981,
                -0.11660979688167572,
                -0.30154240131378174
            ],
            "type" : "VEC3"
        },
        {
            "bufferView" : 1,
            "componentType" : 5126,
            "count" : 21186,
            "type" : "VEC3"
        },
        {
            "bufferView" : 2,
            "componentType" : 5126,
            "count" : 21186,
            "type" : "VEC2"
        },
        {
            "bufferView" : 3,
            "componentType" : 5123,
            "count" : 122184,
            "type" : "SCALAR"
        },
        {
            "bufferView" : 4,
            "componentType" : 5126,
            "count" : 29259,
            "max" : [
                0.8110941648483276,
                0.3163987398147583,
                0.7065534591674805
            ],
            "min" : [
                0.030201196670532227,
                -0.5611156821250916,
                -1.258072853088379
            ],
            "type" : "VEC3"
        },
        {
            "bufferView" : 5,
            "componentType" : 5126,
            "count" : 29259,
            "type" : "VEC3"
        },
        {
            "bufferView" : 6,
            "componentType" : 5126,
            "count" : 29259,
            "type" : "VEC2"
        },
        {
            "bufferView" : 7,
            "componentType" : 5126,
            "count" : 29259,
            "type" : "VEC4"
        },
        {
            "bufferView" : 8,
            "componentType" : 5123,
            "count" : 151740,
            "type" : "SCALAR"
        }
    ],
    "bufferViews" : [
        {
            "buffer" : 0,
            "byteLength" : 254232,
            "byteOffset" : 0
        },
        {
            "buffer" : 0,
            "byteLength" : 254232,
            "byteOffset" : 254232
        },
        {
            "buffer" : 0,
            "byteLength" : 169488,
            "byteOffset" : 508464
        },
        {
            "buffer" : 0,
            "byteLength" : 244368,
            "byteOffset" : 677952
        },
        {
            "buffer" : 0,
            "byteLength" : 351108,
            "byteOffset" : 922320
        },
        {
            "buffer" : 0,
            "byteLength" : 351108,
            "byteOffset" : 1273428
        },
        {
            "buffer" : 0,
            "byteLength" : 234072,
            "byteOffset" : 1624536
        },
        {
            "buffer" : 0,
            "byteLength" : 468144,
            "byteOffset" : 1858608
        },
        {
            "buffer" : 0,
            "byteLength" : 303480,
            "byteOffset" : 2326752
        }
    ],
    "buffers" : [
        {
            "byteLength" : 2630232,
            "uri" : "data:application/octet-stream;base64,"
        }
    ]
}
