{
    "asset" : {
        "generator" : "Khronos glTF Blender I/O v1.6.16",
        "version" : "2.0"
    },
    "scene" : 0,
    "scenes" : [
        {
            "name" : "Scene",
            "nodes" : [
                0
            ]
        }
    ],
    "nodes" : [
        {
            "mesh" : 0,
            "name" : "Whale",
            "translation" : [
                -0.4141336977481842,
                -0.020882606506347656,
                0
            ]
        }
    ],
    "meshes" : [
        {
            "name" : "Whale",
            "primitives" : [
                {
                    "attributes" : {
                        "POSITION" : 0,
                        "NORMAL" : 1,
                        "TEXCOORD_0" : 2,
                        "COLOR_0" : 3
                    },
                    "indices" : 4
                }
            ]
        }
    ],
    "accessors" : [
        {
            "bufferView" : 0,
            "componentType" : 5126,
            "count" : 29259,
            "max" : [
                0.8110941648483276,
                0.3163987398147583,
                0.7065534591674805
            ],
            "min" : [
                0.030201196670532227,
                -0.5611156821250916,
                -1.258072853088379
            ],
            "type" : "VEC3"
        },
        {
            "bufferView" : 1,
            "componentType" : 5126,
            "count" : 29259,
            "type" : "VEC3"
        },
        {
            "bufferView" : 2,
            "componentType" : 5126,
            "count" : 29259,
            "type" : "VEC2"
        },
        {
            "bufferView" : 3,
            "componentType" : 5123,
            "count" : 29259,
            "normalized" : true,
            "type" : "VEC4"
        },
        {
            "bufferView" : 4,
            "componentType" : 5123,
            "count" : 151740,
            "type" : "SCALAR"
        }
    ],
    "bufferViews" : [
        {
            "buffer" : 0,
            "byteLength" : 351108,
            "byteOffset" : 0
        },
        {
            "buffer" : 0,
            "byteLength" : 351108,
            "byteOffset" : 351108
        },
        {
            "buffer" : 0,
            "byteLength" : 234072,
            "byteOffset" : 702216
        },
        {
            "buffer" : 0,
            "byteLength" : 234072,
            "byteOffset" : 936288
        },
        {
            "buffer" : 0,
            "byteLength" : 303480,
            "byteOffset" : 1170360
        }
    ],
    "buffers" : [
        {
            "byteLength" : 1473840,
            "uri" : "data:application/octet-stream;base64,"
        }
    ]
}
