{
    "asset" : {
        "generator" : "Khronos glTF Blender I/O v1.3.48",
        "version" : "2.0"
    },
    "scene" : 0,
    "scenes" : [
        {
            "name" : "Scene",
            "nodes" : [
                0
            ]
        }
    ],
    "nodes" : [
        {
            "mesh" : 0,
            "name" : "Whale",
            "scale" : [
                0.5680853724479675,
                0.5680853724479675,
                0.5680853724479675
            ],
            "translation" : [
                -0.004133701324462891,
                -0.020882606506347656,
                0
            ]
        }
    ],
    "materials" : [
        {
            "emissiveFactor" : [
                0,
                0,
                0
            ],
            "name" : "Material_0",
            "pbrMetallicRoughness" : {
                "baseColorFactor" : [
                    1,
                    1,
                    1,
                    1
                ],
                "metallicFactor" : 1,
                "roughnessFactor" : 1
            }
        }
    ],
    "meshes" : [
        {
            "name" : "Mesh_0",
            "primitives" : [
                {
                    "attributes" : {
                        "POSITION" : 0,
                        "NORMAL" : 1,
                        "TEXCOORD_0" : 2
                    },
                    "indices" : 3,
                    "material" : 0
                }
            ]
        }
    ],
    "accessors" : [
        {
            "bufferView" : 0,
            "componentType" : 5126,
            "count" : 28898,
            "max" : [
                0.6502361297607422,
                0.704058051109314,
                1.2359645366668701
            ],
            "min" : [
                -0.6296544671058655,
                -0.7744588255882263,
                -2.0254404544830322
            ],
            "type" : "VEC3"
        },
        {
            "bufferView" : 1,
            "componentType" : 5126,
            "count" : 28898,
            "type" : "VEC3"
        },
        {
            "bufferView" : 2,
            "componentType" : 5126,
            "count" : 28898,
            "type" : "VEC2"
        },
        {
            "bufferView" : 3,
            "componentType" : 5123,
            "count" : 151740,
            "type" : "SCALAR"
        }
    ],
    "bufferViews" : [
        {
            "buffer" : 0,
            "byteLength" : 346776,
            "byteOffset" : 0
        },
        {
            "buffer" : 0,
            "byteLength" : 346776,
            "byteOffset" : 346776
        },
        {
            "buffer" : 0,
            "byteLength" : 231184,
            "byteOffset" : 693552
        },
        {
            "buffer" : 0,
            "byteLength" : 303480,
            "byteOffset" : 924736
        }
    ],
    "buffers" : [
        {
            "byteLength" : 1228216,
            "uri" : "data:application/octet-stream;base64,"
        }
    ]
}
